<?xml version="1.0" standalone="yes"?>
<svg xmlns="http://www.w3.org/2000/svg" width="200" height="200">
<path style="fill:#131f3d; stroke:none;" d="M0 0L0 200L200 200L200 0L0 0z"/>
<path style="fill:#5e595c; stroke:none;" d="M97.6667 42.3333L98.3333 42.6667L97.6667 42.3333z"/>
<path style="fill:#d97a1c; stroke:none;" d="M99 42.6412C90.6923 43.3084 89.4396 49.2055 85.3009 54.9105C81.8111 59.7211 76.55 62.6912 73.5332 68C70.8305 72.7561 71.319 77.9662 69.4151 82.8302C66.6807 89.8161 60.5275 93.6301 64.5725 101.996C69.2506 111.672 76.4972 107.747 84.4244 109.279C90.5685 110.467 95.4508 113.358 102 112.909C106.911 112.572 111.009 110.175 115.715 109.279C123.706 107.758 130.693 111.791 135.427 101.996C139.484 93.6039 133.278 89.8419 130.588 82.8302C128.705 77.921 129.226 72.8274 126.468 68C123.438 62.6991 118.189 59.7216 114.699 54.9105C110.263 48.7961 108.297 41.8945 99 42.6412z"/>
<path style="fill:#5e595c; stroke:none;" d="M101.667 42.3333L102.333 42.6667L101.667 42.3333M94 43L95 44L94 43M105 43L106 44L105 43M92 44L93 45L92 44M107 44L108 45L107 44M88 48L89 49L88 48M98 48L98 49L102 49L98 48M111 48L112 49L111 48M96 49L97 50L96 49z"/>
<path style="fill:#131f3d; stroke:none;" d="M97.1088 49.7461C88.916 53.1424 94.4394 65.7656 102.941 62.3958C111.098 59.1628 105.451 46.2878 97.1088 49.7461z"/>
<path style="fill:#5e595c; stroke:none;" d="M103 49L104 50L103 49M87 50L88 51L87 50M112 50L113 51L112 50M86.3333 52.6667L86.6667 53.3333L86.3333 52.6667M93 52L94 53L93 52M106 52L107 53L106 52M113.333 52.6667L113.667 53.3333L113.333 52.6667M92 54L92 58L93 58L92 54M107 54L107 58L108 58L107 54M83 57L84 58L83 57M116 57L117 58L116 57M80 59L81 60L80 59M119 59L120 60L119 59M79 60L80 61L79 60M120 60L121 61L120 60M78 61L79 62L78 61M94 61L95 62L94 61M105 61L106 62L105 61M121 61L122 62L121 61M77 62L78 63L77 62M87 62L88 63L87 62M95 62L96 63L95 62M104 62L105 63L104 62M112 62L113 63L112 62M122 62L123 63L122 62M76 63L77 64L76 63M85 63L84 65L85 63z"/>
<path style="fill:#131f3d; stroke:none;" d="M76 82C87.9806 83.8037 92.4579 93.088 89 104C96.2182 107.533 103.782 107.533 111 104C107.542 93.088 112.019 83.8037 124 82C123.282 76.6733 120.485 63.6304 112.985 64.1165C108.137 64.4308 105.435 69.912 100 69.912C94.5707 69.912 91.8763 64.4368 87.0394 64.1165C79.9355 63.6461 76.6909 76.8947 76 82z"/>
<path style="fill:#5e595c; stroke:none;" d="M97 63L97 64L103 64L97 63M114 63L115 64L114 63M123 63L124 64L123 63M115 64L116 65L115 64M74 66L75 67L74 66M82 66L83 67L82 66M125 66L126 67L125 66M81 67L82 68L81 67M118 67L119 68L118 67M80 68L81 69L80 68M93 68L94 69L93 68M106 68L107 69L106 68M119 68L120 69L119 68M72 69L73 70L72 69M95.6667 69.3333L96.3333 69.6667L95.6667 69.3333M103.667 69.3333L104.333 69.6667L103.667 69.3333M127 69L128 70L127 69M79 70L80 71L79 70M121 71L122 72L121 71M71 72L72 73L71 72M78 72L79 73L78 72M128 72L129 73L128 72M98 73L98 74L102 74L98 73M77 74L78 75L77 74M95 74L96 75L95 74z"/>
<path style="fill:#8d929a; stroke:none;" d="M96 74L97 75L96 74z"/>
<path style="fill:#e3e4dd; stroke:none;" d="M97.0154 74.7461C86.3811 78.787 92.4105 94.9722 102.985 91.0918C113.682 87.1662 107.457 70.7785 97.0154 74.7461z"/>
<path style="fill:#8d929a; stroke:none;" d="M103 74L104 75L103 74z"/>
<path style="fill:#5e595c; stroke:none;" d="M104 74L105 75L104 74M122 74L123 75L122 74M70.3333 75.6667L70.6667 76.3333L70.3333 75.6667z"/>
<path style="fill:#8d929a; stroke:none;" d="M94 75L95 76L94 75M105 75L106 76L105 75z"/>
<path style="fill:#5e595c; stroke:none;" d="M129 75L130 76L129 75z"/>
<path style="fill:#8d929a; stroke:none;" d="M93 76L94 77L93 76M106 76L107 77L106 76z"/>
<path style="fill:#5e595c; stroke:none;" d="M123 76L123 79L124 79L123 76M76.3333 77.6667L76.6667 78.3333L76.3333 77.6667z"/>
<path style="fill:#8d929a; stroke:none;" d="M92 77L93 78L92 77M107 77L108 78L107 77M91 79L92 80L91 79M108 79L109 80L108 79z"/>
<path style="fill:#5e595c; stroke:none;" d="M130 79L130 85L131 85L130 79M69 80L69 85L70 85L69 80M98 80L97 82L98 80z"/>
<path style="fill:#131f3d; stroke:none;" d="M97 84L103 84C101.025 80.5281 98.9753 80.5281 97 84z"/>
<path style="fill:#5e595c; stroke:none;" d="M101 80L102 81L101 80M102 81L103 82L102 81M109 81L109 84L110 84L109 81M76 82L76 83L80 83L76 82M90.3333 82.6667L90.6667 83.3333L90.3333 82.6667M120 82L120 83L124 83L120 82M82 83L83 84L82 83M117 83L118 84L117 83M84 84L85 85L84 84z"/>
<path style="fill:#8d929a; stroke:none;" d="M97 84L98 85L97 84M102 84L103 85L102 84z"/>
<path style="fill:#5e595c; stroke:none;" d="M115 84L116 85L115 84M85 85L86 86L85 85z"/>
<path style="fill:#8d929a; stroke:none;" d="M98 85L99 86L98 85z"/>
<path style="fill:#5e595c; stroke:none;" d="M99.6667 85.3333L100.333 85.6667L99.6667 85.3333z"/>
<path style="fill:#8d929a; stroke:none;" d="M101 85L102 86L101 85z"/>
<path style="fill:#5e595c; stroke:none;" d="M114 85L115 86L114 85z"/>
<path style="fill:#8d929a; stroke:none;" d="M91 86L92 87L91 86M108 86L109 87L108 86z"/>
<path style="fill:#5e595c; stroke:none;" d="M113 86L114 87L113 86M87 87L88 88L87 87M112 87L113 88L112 87M65 88L66 89L65 88M76.6667 88.3333L77.3333 88.6667L76.6667 88.3333M88 88L89 89L88 88M92 88L93 89L92 88M107 88L108 89L107 88M111 88L112 89L111 88M122.667 88.3333L123.333 88.6667L122.667 88.3333M134 88L135 89L134 88M64 89L65 90L64 89M73 89L74 90L73 89z"/>
<path style="fill:#131f3d; stroke:none;" d="M74.0586 89.7461C65.8372 93.0621 71.6722 106.592 79.9414 102.642C87.9457 98.8188 82.5149 86.3355 74.0586 89.7461z"/>
<path style="fill:#5e595c; stroke:none;" d="M80 89L81 90L80 89M93 89L94 90L93 89M106 89L107 90L106 89M119 89L120 90L119 89z"/>
<path style="fill:#131f3d; stroke:none;" d="M120.109 89.7461C111.962 93.1219 117.639 106.608 125.941 102.642C133.975 98.8048 128.636 86.2125 120.109 89.7461z"/>
<path style="fill:#5e595c; stroke:none;" d="M126 89L127 90L126 89M135 89L136 90L135 89M89 90L90 91L89 90M94 90L95 91L94 90M105 90L106 91L105 90M110 90L111 91L110 90M96 91L97 92L96 91z"/>
<path style="fill:#8d929a; stroke:none;" d="M97 91L98 92L97 91M102 91L103 92L102 91z"/>
<path style="fill:#5e595c; stroke:none;" d="M103 91L104 92L103 91M63 92L64 93L63 92M83 92L84 93L83 92M116 92L117 93L116 92M136 92L137 93L136 92M90.3333 93.6667L90.6667 94.3333L90.3333 93.6667M109.333 93.6667L109.667 94.3333L109.333 93.6667M69 94L69 99L70 99L69 94M84 94L84 98L85 98L84 94M115 94L115 98L116 98L115 94M130 94L130 99L131 99L130 94M109 97L109 100L110 100L109 97M90.3333 98.6667L90.6667 99.3333L90.3333 98.6667M63.3333 99.6667L63.6667 100.333L63.3333 99.6667M136.333 99.6667L136.667 100.333L136.333 99.6667M70 100L71 101L70 100M129 100L130 101L129 100M71 101L72 102L71 101M82 101L83 102L82 101M110.333 101.667L110.667 102.333L110.333 101.667M117 101L118 102L117 101M128 101L129 102L128 101M64 102L65 103L64 102M72 102L73 103L72 102M81 102L82 103L81 102M89 102L90 103L89 102M118 102L119 103L118 102M127 102L128 103L127 102M135 102L136 103L135 102M74.6667 103.333L75.3333 103.667L74.6667 103.333M78.6667 103.333L79.3333 103.667L78.6667 103.333M111 103L112 104L111 103M120.667 103.333L121.333 103.667L120.667 103.333M124.667 103.333L125.333 103.667L124.667 103.333M89 104L90 105L89 104M110 104L111 105L110 104M134 104L135 105L134 104M66 105L67 106L66 105M91 105L92 106L91 105M108 105L109 106L108 105M133 105L134 106L133 105M67 106L68 107L67 106M94 106L94 107L97 107L94 106M103 106L103 107L106 107L103 106M132 106L133 107L132 106M68 107L69 108L68 107M131 107L132 108L131 107M70 108L71 109L70 108M83 108L84 109L83 108M116 108L117 109L116 108M129 108L130 109L129 108M72.6667 109.333L73.3333 109.667L72.6667 109.333M80.6667 109.333L81.3333 109.667L80.6667 109.333M85 109L86 110L85 109M114 109L115 110L114 109M118.667 109.333L119.333 109.667L118.667 109.333M127 109L128 110L127 109M87 110L88 111L87 110M112 110L113 111L112 110M89.6667 111.333L90.3333 111.667L89.6667 111.333M109.667 111.333L110.333 111.667L109.667 111.333M93.6667 112.333L94.3333 112.667L93.6667 112.333M105.667 112.333L106.333 112.667L105.667 112.333M99.6667 113.333L100.333 113.667L99.6667 113.333z"/>
<path style="fill:#e3e4dd; stroke:none;" d="M35 121L35 141C41.2397 140.982 49.7686 138.624 44 131C48.3331 122.832 42.1602 121.021 35 121z"/>
<path style="fill:#8d929a; stroke:none;" d="M43 121L44 122L43 121M104 121L104 141L105 141L104 121z"/>
<path style="fill:#e3e4dd; stroke:none;" d="M105 121L105 141L107 141L107 126L108 126L111 141L114 141L117 127L118 127L118 141L121 141L121 121C114.381 122.101 114.161 130.375 113 136L112 136L109 121L105 121z"/>
<path style="fill:#8d929a; stroke:none;" d="M116 121L117 122L116 121z"/>
<path style="fill:#5e595c; stroke:none;" d="M121 121L121 141L122 141L121 121M45 122L46 123L45 122M109 122L110 123L109 122z"/>
<path style="fill:#8d929a; stroke:none;" d="M109.333 123.667L109.667 124.333L109.333 123.667M38 124L38 129L39 129L42 125L38 124z"/>
<path style="fill:#5e595c; stroke:none;" d="M115 124L116 125L115 124z"/>
<path style="fill:#131f3d; stroke:none;" d="M39 125L39 129L43 126L39 125z"/>
<path style="fill:#5e595c; stroke:none;" d="M42 125L43 126L42 125M46 125L46 128L47 128L46 125M50 125L50 126L54 127L54 126L50 125z"/>
<path style="fill:#8d929a; stroke:none;" d="M55.6667 125.333L56.3333 125.667L55.6667 125.333z"/>
<path style="fill:#5e595c; stroke:none;" d="M57 125L57 129L58 129L57 125M62 125L63 126L62 125z"/>
<path style="fill:#8d929a; stroke:none;" d="M63 125L63 126L66 126L63 125z"/>
<path style="fill:#5e595c; stroke:none;" d="M66 125L67 126L66 125M71 125L71 126L75 126L71 125M80 125L80 126L83 126L80 125M88 125L89 126L88 125z"/>
<path style="fill:#8d929a; stroke:none;" d="M89 125L89 126L92 126L89 125M115 125L116 126L115 125z"/>
<path style="fill:#5e595c; stroke:none;" d="M127 125L128 126L127 125z"/>
<path style="fill:#8d929a; stroke:none;" d="M128 125L128 126L131 126L128 125z"/>
<path style="fill:#5e595c; stroke:none;" d="M131 125L132 126L131 125M138 125L138 126L141 126L138 125M143 125L144 126L143 125z"/>
<path style="fill:#8d929a; stroke:none;" d="M144.667 125.333L145.333 125.667L144.667 125.333z"/>
<path style="fill:#5e595c; stroke:none;" d="M146 125L147 126L146 125z"/>
<path style="fill:#8d929a; stroke:none;" d="M155 125L155 126L158 126L155 125z"/>
<path style="fill:#5e595c; stroke:none;" d="M158 125L158 126L163 126L158 125M168 125L169 126L168 125z"/>
<path style="fill:#8d929a; stroke:none;" d="M169 125L169 126L172 126L169 125M49 126L49 141L50 141L49 126z"/>
<path style="fill:#e3e4dd; stroke:none;" d="M50 126L50 141L53 141L57 126L53 128L50 126z"/>
<path style="fill:#8d929a; stroke:none;" d="M60 126L61 127L60 126z"/>
<path style="fill:#e3e4dd; stroke:none;" d="M60 127L60 128L67 131C64.6443 131.64 61.4472 132.041 60.0432 134.313C57.0614 139.14 62.3714 141.723 66 139L69 141C69 133.494 70.4509 123.939 60 127z"/>
<path style="fill:#8d929a; stroke:none;" d="M71 126L72 127L71 126z"/>
<path style="fill:#e3e4dd; stroke:none;" d="M72 126C72.7048 131.23 73.4212 139.167 79 141L83 126C78.6444 126.929 78.2 133.034 78 137L77 137L75 126L72 126z"/>
<path style="fill:#8d929a; stroke:none;" d="M83 126L84 127L83 126M87 126L88 127L87 126z"/>
<path style="fill:#e3e4dd; stroke:none;" d="M95 138C91.3215 137.899 89.7332 137.283 88 134L95 134C94.8177 128.402 87.9167 121.89 85.4344 130.109C83.5599 136.315 90.2241 145.359 95 138z"/>
<path style="fill:#8d929a; stroke:none;" d="M93 126L94 127L93 126M107.333 126.667L107.667 127.333L107.333 126.667z"/>
<path style="fill:#5e595c; stroke:none;" d="M110 126L111 127L110 126z"/>
<path style="fill:#8d929a; stroke:none;" d="M118 126L119 127L118 126z"/>
<path style="fill:#5e595c; stroke:none;" d="M125 126L126 127L125 126z"/>
<path style="fill:#e3e4dd; stroke:none;" d="M126 129L132 132C121.867 132.56 124.941 143.368 131 139L134 141C134 137.298 135.103 131.548 133.667 128.111C132.089 124.335 126.72 125.639 126 129z"/>
<path style="fill:#5e595c; stroke:none;" d="M133 126L134 127L133 126z"/>
<path style="fill:#e3e4dd; stroke:none;" d="M138 126L138 141L141 141C141.003 135.907 140.37 130.778 146 129L146 141L149 141C149 137.748 148.835 120.339 142 128L138 126z"/>
<path style="fill:#8d929a; stroke:none;" d="M147 126L148 127L147 126M153 126L154 127L153 126z"/>
<path style="fill:#e3e4dd; stroke:none;" d="M155 138L155 136C160.672 135.095 161.155 130.803 163 126C152.377 126.008 153.84 128.509 152.948 137.285C152.606 140.643 149.794 145.321 154.229 147.242C161.692 150.475 165.664 138.59 155 138z"/>
<path style="fill:#5e595c; stroke:none;" d="M166 126L165 128L166 126z"/>
<path style="fill:#e3e4dd; stroke:none;" d="M167.434 127.032C162.284 130.453 165.445 144.588 172.687 139.968C178.177 136.465 174.54 122.311 167.434 127.032z"/>
<path style="fill:#5e595c; stroke:none;" d="M173 126L174 127L173 126M42 127L43 128L42 127z"/>
<path style="fill:#8d929a; stroke:none;" d="M52 127L53 128L52 127M68 127L69 128L68 127z"/>
<path style="fill:#5e595c; stroke:none;" d="M71 127L72 128L71 127M79 127L80 128L79 127z"/>
<path style="fill:#8d929a; stroke:none;" d="M94 127L95 128L94 127M110.333 127.667L110.667 128.333L110.333 127.667M117 127L118 128L117 127M125 127L126 128L125 127M141 127L142 128L141 127M148 127L149 128L148 127z"/>
<path style="fill:#5e595c; stroke:none;" d="M152 127L153 128L152 127M174 127L175 128L174 127M41 128L42 129L41 128z"/>
<path style="fill:#8d929a; stroke:none;" d="M60 128L61 129L60 128M63.6667 128.333L64.3333 128.667L63.6667 128.333z"/>
<path style="fill:#5e595c; stroke:none;" d="M69 128L70 129L69 128M75 128L76 129L75 128z"/>
<path style="fill:#8d929a; stroke:none;" d="M79.3333 128.667L79.6667 129.333L79.3333 128.667z"/>
<path style="fill:#5e595c; stroke:none;" d="M85 128L86 129L85 128z"/>
<path style="fill:#8d929a; stroke:none;" d="M88 130L91 129L88 130z"/>
<path style="fill:#5e595c; stroke:none;" d="M107 128L107 141L108 141L107 128M114 128L115 129L114 128M117 128L118 129L117 128M125 128L126 129L125 128z"/>
<path style="fill:#8d929a; stroke:none;" d="M128 128L128 129L131 129L128 128M134 128L134 141L135 141L134 128M155 128L156 129L155 128z"/>
<path style="fill:#131f3d; stroke:none;" d="M156 128L158 133L156 128z"/>
<path style="fill:#5e595c; stroke:none;" d="M157 128L158 129L157 128z"/>
<path style="fill:#8d929a; stroke:none;" d="M161 128L161 133L162 133L161 128M165 128L166 129L165 128z"/>
<path style="fill:#5e595c; stroke:none;" d="M45 129L46 130L45 129z"/>
<path style="fill:#8d929a; stroke:none;" d="M55.6667 129.333L56.3333 129.667L55.6667 129.333z"/>
<path style="fill:#5e595c; stroke:none;" d="M61 129L62 130L61 129z"/>
<path style="fill:#8d929a; stroke:none;" d="M69 129L69 141L70 141L69 129M72.3333 129.667L72.6667 130.333L72.3333 129.667M75 129L76 130L75 129M82 129L83 130L82 129z"/>
<path style="fill:#131f3d; stroke:none;" d="M89 129L89 131L92 131L92 129L89 129z"/>
<path style="fill:#5e595c; stroke:none;" d="M95 129L96 130L95 129z"/>
<path style="fill:#8d929a; stroke:none;" d="M108.333 129.667L108.667 130.333L108.333 129.667M114 129L115 130L114 129z"/>
<path style="fill:#5e595c; stroke:none;" d="M126 129L127 130L126 129z"/>
<path style="fill:#8d929a; stroke:none;" d="M131 129L130 132L131 129z"/>
<path style="fill:#5e595c; stroke:none;" d="M142 129L143 130L142 129z"/>
<path style="fill:#8d929a; stroke:none;" d="M145 129L146 130L145 129M158 129L158 132L159 132L158 129M168 129L169 130L168 129z"/>
<path style="fill:#131f3d; stroke:none;" d="M169 129L169 138L171 138L171 129L169 129z"/>
<path style="fill:#8d929a; stroke:none;" d="M171 129L172 130L171 129z"/>
<path style="fill:#5e595c; stroke:none;" d="M175 129L176 130L175 129M44 130L45 131L44 130z"/>
<path style="fill:#8d929a; stroke:none;" d="M53 130L54 131L53 130M66 130L67 131L66 130z"/>
<path style="fill:#5e595c; stroke:none;" d="M82 130L83 131L82 130M88 130L92 132L92 131L88 130z"/>
<path style="fill:#8d929a; stroke:none;" d="M92.3333 130.667L92.6667 131.333L92.3333 130.667M95 130L95 134L88 134L88 135C91.6893 134.956 96.5923 134.859 95 130z"/>
<path style="fill:#5e595c; stroke:none;" d="M111 130L112 131L111 130M145 130L146 131L145 130M149 130L149 141L150 141L149 130M151 130L152 131L151 130z"/>
<path style="fill:#8d929a; stroke:none;" d="M164 130L164 136L165 136L164 130M175 130L175 133L176 133L175 130z"/>
<path style="fill:#5e595c; stroke:none;" d="M45 131L46 132L45 131M53 131L54 132L53 131M63.6667 131.333L64.3333 131.667L63.6667 131.333z"/>
<path style="fill:#8d929a; stroke:none;" d="M65 131L66 132L65 131z"/>
<path style="fill:#5e595c; stroke:none;" d="M78 131L79 132L78 131M84 131L84 136L85 136L84 131z"/>
<path style="fill:#8d929a; stroke:none;" d="M111.333 131.667L111.667 132.333L111.333 131.667M116 131L117 132L116 131z"/>
<path style="fill:#5e595c; stroke:none;" d="M128.667 131.333L129.333 131.667L128.667 131.333z"/>
<path style="fill:#8d929a; stroke:none;" d="M141 131L141 141L142 141L141 131M167 131L167 136L168 136L167 131M172 131L172 136L173 136L172 131M38 132L38 138L39 138L42 133L38 132z"/>
<path style="fill:#5e595c; stroke:none;" d="M46 132L47 133L46 132M60 132L61 133L60 132M76 132L77 133L76 132z"/>
<path style="fill:#8d929a; stroke:none;" d="M78 132L79 133L78 132M81 132L82 133L81 132z"/>
<path style="fill:#5e595c; stroke:none;" d="M113 132L114 133L113 132M116 132L117 133L116 132M125 132L126 133L125 132z"/>
<path style="fill:#8d929a; stroke:none;" d="M126 132L127 133L126 132z"/>
<path style="fill:#5e595c; stroke:none;" d="M155 132L156 133L155 132z"/>
<path style="fill:#131f3d; stroke:none;" d="M39 133L39 137L43 137L43 133L39 133z"/>
<path style="fill:#8d929a; stroke:none;" d="M46 133L46 138L47 138L46 133z"/>
<path style="fill:#5e595c; stroke:none;" d="M59 133L60 134L59 133z"/>
<path style="fill:#8d929a; stroke:none;" d="M73 133L74 134L73 133M76 133L77 134L76 133z"/>
<path style="fill:#5e595c; stroke:none;" d="M81 133L82 134L81 133z"/>
<path style="fill:#8d929a; stroke:none;" d="M113 133L114 134L113 133M152 133L153 134L152 133M156.667 133.333L157.333 133.667L156.667 133.333M43.3333 134.667L43.6667 135.333L43.3333 134.667M63 134L62 136L63 134z"/>
<path style="fill:#5e595c; stroke:none;" d="M64 134L65 135L64 134z"/>
<path style="fill:#131f3d; stroke:none;" d="M65 134L63 138L65 134z"/>
<path style="fill:#8d929a; stroke:none;" d="M66.3333 134.667L66.6667 135.333L66.3333 134.667z"/>
<path style="fill:#5e595c; stroke:none;" d="M73 134L74 135L73 134M95 134L96 135L95 134z"/>
<path style="fill:#8d929a; stroke:none;" d="M109 134L110 135L109 134M115.333 134.667L115.667 135.333L115.333 134.667M124 134L125 135L124 134M128 134L130 139L130 138L128 134z"/>
<path style="fill:#5e595c; stroke:none;" d="M129 134L130 135L129 134z"/>
<path style="fill:#131f3d; stroke:none;" d="M130 134L128 138L130 134z"/>
<path style="fill:#8d929a; stroke:none;" d="M131 134L131 137L132 137L131 134M160 134L161 135L160 134M175 134L175 137L176 137L175 134z"/>
<path style="fill:#5e595c; stroke:none;" d="M77 135L78 136L77 135M109 135L110 136L109 135z"/>
<path style="fill:#8d929a; stroke:none;" d="M112 135L113 136L112 135M153 135L154 136L153 135z"/>
<path style="fill:#5e595c; stroke:none;" d="M159 135L160 136L159 135M58 136L59 137L58 136M62.3333 136.667L62.6667 137.333L62.3333 136.667z"/>
<path style="fill:#8d929a; stroke:none;" d="M74 136L75 137L74 136M77 136L78 137L77 136M80 136L81 137L80 136z"/>
<path style="fill:#5e595c; stroke:none;" d="M88 136L89 137L88 136M115 136L116 137L115 136M152 136L153 137L152 136M155.333 136.667L155.667 137.333L155.333 136.667M164 136L165 137L164 136M39.6667 137.333L40.3333 137.667L39.6667 137.333z"/>
<path style="fill:#8d929a; stroke:none;" d="M41 137L42 138L41 137M65 137L66 138L65 137z"/>
<path style="fill:#5e595c; stroke:none;" d="M74 137L75 138L74 137M80 137L81 138L80 137z"/>
<path style="fill:#8d929a; stroke:none;" d="M85 137L86 138L85 137M94 137L95 138L94 137z"/>
<path style="fill:#5e595c; stroke:none;" d="M130 137L131 138L130 137z"/>
<path style="fill:#8d929a; stroke:none;" d="M152.333 137.667L152.667 138.333L152.333 137.667M168 137L169 138L168 137M171 137L172 138L171 137z"/>
<path style="fill:#5e595c; stroke:none;" d="M175 137L176 138L175 137z"/>
<path style="fill:#8d929a; stroke:none;" d="M63.6667 138.333L64.3333 138.667L63.6667 138.333z"/>
<path style="fill:#5e595c; stroke:none;" d="M85 138L86 139L85 138z"/>
<path style="fill:#8d929a; stroke:none;" d="M90.6667 138.333L91.3333 138.667L90.6667 138.333M110.333 138.667L110.667 139.333L110.333 138.667M114.333 138.667L114.667 139.333L114.333 138.667M124 138L125 139L124 138M160 138L161 139L160 138M165 138L166 139L165 138z"/>
<path style="fill:#5e595c; stroke:none;" d="M45 139L46 140L45 139z"/>
<path style="fill:#8d929a; stroke:none;" d="M59 139L60 140L59 139M66 139L67 140L66 139M79 139L80 140L79 139M86 139L87 140L86 139z"/>
<path style="fill:#5e595c; stroke:none;" d="M124 139L125 140L124 139z"/>
<path style="fill:#8d929a; stroke:none;" d="M131 139L132 140L131 139z"/>
<path style="fill:#5e595c; stroke:none;" d="M174 139L175 140L174 139z"/>
<path style="fill:#8d929a; stroke:none;" d="M43 140L44 141L43 140z"/>
<path style="fill:#5e595c; stroke:none;" d="M44 140L45 141L44 140M65 140L66 141L65 140z"/>
<path style="fill:#8d929a; stroke:none;" d="M75 140L76 141L75 140z"/>
<path style="fill:#5e595c; stroke:none;" d="M79 140L80 141L79 140z"/>
<path style="fill:#8d929a; stroke:none;" d="M87 140L88 141L87 140M94 140L95 141L94 140z"/>
<path style="fill:#5e595c; stroke:none;" d="M110 140L111 141L110 140M114 140L115 141L114 140z"/>
<path style="fill:#8d929a; stroke:none;" d="M125 140L126 141L125 140M130 140L131 141L130 140z"/>
<path style="fill:#5e595c; stroke:none;" d="M152 140L153 141L152 140z"/>
<path style="fill:#8d929a; stroke:none;" d="M162.333 140.667L162.667 141.333L162.333 140.667z"/>
<path style="fill:#5e595c; stroke:none;" d="M166 140L167 141L166 140M173 140L174 141L173 140M35 141L35 142L42 142L35 141M50 141L50 142L53 142L50 141M61 141L62 142L61 141z"/>
<path style="fill:#8d929a; stroke:none;" d="M62.6667 141.333L63.3333 141.667L62.6667 141.333z"/>
<path style="fill:#5e595c; stroke:none;" d="M67.6667 141.333L68.3333 141.667L67.6667 141.333M76 141L76 142L79 142L76 141z"/>
<path style="fill:#8d929a; stroke:none;" d="M89 141L89 142L93 142L89 141z"/>
<path style="fill:#5e595c; stroke:none;" d="M104 141L104 142L107 142L104 141M111 141L111 142L114 142L111 141M118 141L118 142L121 142L118 141M126 141L127 142L126 141z"/>
<path style="fill:#8d929a; stroke:none;" d="M127.667 141.333L128.333 141.667L127.667 141.333z"/>
<path style="fill:#5e595c; stroke:none;" d="M129 141L130 142L129 141M133.667 141.333L134.333 141.667L133.667 141.333M138 141L138 142L141 142L138 141M146 141L146 142L149 142L146 141M151 141L152 142L151 141z"/>
<path style="fill:#8d929a; stroke:none;" d="M155 141L155 142L159 142L155 141z"/>
<path style="fill:#5e595c; stroke:none;" d="M168 141L169 142L168 141z"/>
<path style="fill:#8d929a; stroke:none;" d="M169.667 141.333L170.333 141.667L169.667 141.333z"/>
<path style="fill:#5e595c; stroke:none;" d="M171 141L172 142L171 141z"/>
<path style="fill:#131f3d; stroke:none;" d="M154 142C155.958 144.994 158.042 144.994 160 142L154 142z"/>
<path style="fill:#8d929a; stroke:none;" d="M153 143L154 144L153 143M162.333 143.667L162.667 144.333L162.333 143.667z"/>
<path style="fill:#5e595c; stroke:none;" d="M154 144L155 145L154 144z"/>
<path style="fill:#8d929a; stroke:none;" d="M151 145L152 146L151 145M155 145L155 146L158 146L155 145z"/>
<path style="fill:#5e595c; stroke:none;" d="M151 146L152 147L151 146M161 146L162 147L161 146M152 147L153 148L152 147z"/>
<path style="fill:#8d929a; stroke:none;" d="M153 147L154 148L153 147M159 147L160 148L159 147z"/>
<path style="fill:#5e595c; stroke:none;" d="M89.6667 148.333L90.3333 148.667L89.6667 148.333z"/>
<path style="fill:#8d929a; stroke:none;" d="M89 149L89 155L91 155L91 149L89 149z"/>
<path style="fill:#5e595c; stroke:none;" d="M93 150L93 155L94 155L93 150z"/>
<path style="fill:#8d929a; stroke:none;" d="M94 150L96 152L96 150L94 150z"/>
<path style="fill:#e3e4dd; stroke:none;" d="M96 150L98 152L98 150L96 150z"/>
<path style="fill:#5e595c; stroke:none;" d="M98 150L99 151L98 150z"/>
<path style="fill:#8d929a; stroke:none;" d="M102 150L101 154L102 154L102 150z"/>
<path style="fill:#e3e4dd; stroke:none;" d="M102 152L105 151L102 152z"/>
<path style="fill:#5e595c; stroke:none;" d="M105 150L106 151L105 150z"/>
<path style="fill:#e3e4dd; stroke:none;" d="M94 151L94 155L95 155L94 151z"/>
<path style="fill:#5e595c; stroke:none;" d="M96 151L97 152L96 151z"/>
<path style="fill:#8d929a; stroke:none;" d="M98 151L97 155L98 151z"/>
<path style="fill:#5e595c; stroke:none;" d="M103.667 151.333L104.333 151.667L103.667 151.333M95 152L95 155L96 155L95 152z"/>
<path style="fill:#e3e4dd; stroke:none;" d="M102 153L105 155L105 154L102 153z"/>
<path style="fill:#5e595c; stroke:none;" d="M101 154L102 155L101 154M105 154L106 155L105 154M89.6667 155.333L90.3333 155.667L89.6667 155.333z"/>
<path style="fill:#8d929a; stroke:none;" d="M94 155L95 156L94 155z"/>
<path style="fill:#5e595c; stroke:none;" d="M97.6667 155.333L98.3333 155.667L97.6667 155.333M102 155L103 156L102 155z"/>
<path style="fill:#8d929a; stroke:none;" d="M103.667 155.333L104.333 155.667L103.667 155.333z"/>
</svg>
